<svg width="78" height="64" viewBox="0 0 78 64" fill="none" xmlns="http://www.w3.org/2000/svg">
<ellipse cx="73.32" cy="4.08176" rx="4.25531" ry="4.08163" transform="rotate(-180 73.32 4.08176)" fill="url(#paint0_linear)"/>
<ellipse cx="61.8091" cy="4.08164" rx="4.25531" ry="4.08163" transform="rotate(-180 61.8091 4.08164)" fill="url(#paint1_linear)"/>
<ellipse cx="50.2984" cy="4.08176" rx="4.25531" ry="4.08163" transform="rotate(-180 50.2984 4.08176)" fill="url(#paint2_linear)"/>
<ellipse cx="38.7877" cy="4.08164" rx="4.25531" ry="4.08163" transform="rotate(-180 38.7877 4.08164)" fill="url(#paint3_linear)"/>
<ellipse cx="27.2768" cy="4.08176" rx="4.25531" ry="4.08163" transform="rotate(-180 27.2768 4.08176)" fill="url(#paint4_linear)"/>
<ellipse cx="15.766" cy="4.08176" rx="4.25531" ry="4.08163" transform="rotate(-180 15.766 4.08176)" fill="url(#paint5_linear)"/>
<ellipse cx="4.25531" cy="4.08176" rx="4.25531" ry="4.08163" transform="rotate(-180 4.25531 4.08176)" fill="url(#paint6_linear)"/>
<ellipse cx="73.32" cy="15.245" rx="4.25531" ry="4.08163" transform="rotate(-180 73.32 15.245)" fill="url(#paint7_linear)"/>
<ellipse cx="61.809" cy="15.2448" rx="4.25531" ry="4.08163" transform="rotate(-180 61.809 15.2448)" fill="url(#paint8_linear)"/>
<ellipse cx="50.2984" cy="15.245" rx="4.25531" ry="4.08163" transform="rotate(-180 50.2984 15.245)" fill="url(#paint9_linear)"/>
<ellipse cx="38.7875" cy="15.2448" rx="4.25531" ry="4.08163" transform="rotate(-180 38.7875 15.2448)" fill="url(#paint10_linear)"/>
<ellipse cx="27.2768" cy="15.245" rx="4.25531" ry="4.08163" transform="rotate(-180 27.2768 15.245)" fill="url(#paint11_linear)"/>
<ellipse cx="15.766" cy="15.245" rx="4.25531" ry="4.08163" transform="rotate(-180 15.766 15.245)" fill="url(#paint12_linear)"/>
<ellipse cx="4.25531" cy="15.245" rx="4.25531" ry="4.08163" transform="rotate(-180 4.25531 15.245)" fill="url(#paint13_linear)"/>
<ellipse cx="73.3199" cy="26.4082" rx="4.25531" ry="4.08163" transform="rotate(-180 73.3199 26.4082)" fill="url(#paint14_linear)"/>
<ellipse cx="61.8091" cy="26.4081" rx="4.25531" ry="4.08163" transform="rotate(-180 61.8091 26.4081)" fill="url(#paint15_linear)"/>
<ellipse cx="50.2984" cy="26.4082" rx="4.25531" ry="4.08163" transform="rotate(-180 50.2984 26.4082)" fill="url(#paint16_linear)"/>
<ellipse cx="38.7875" cy="26.4081" rx="4.25531" ry="4.08163" transform="rotate(-180 38.7875 26.4081)" fill="url(#paint17_linear)"/>
<ellipse cx="27.2768" cy="26.4082" rx="4.25531" ry="4.08163" transform="rotate(-180 27.2768 26.4082)" fill="url(#paint18_linear)"/>
<ellipse cx="15.766" cy="26.4082" rx="4.25531" ry="4.08163" transform="rotate(-180 15.766 26.4082)" fill="url(#paint19_linear)"/>
<ellipse cx="4.25543" cy="26.4082" rx="4.25531" ry="4.08163" transform="rotate(-180 4.25543 26.4082)" fill="url(#paint20_linear)"/>
<ellipse cx="73.32" cy="37.5714" rx="4.25531" ry="4.08163" transform="rotate(-180 73.32 37.5714)" fill="url(#paint21_linear)"/>
<ellipse cx="61.8093" cy="37.5713" rx="4.25531" ry="4.08163" transform="rotate(-180 61.8093 37.5713)" fill="url(#paint22_linear)"/>
<ellipse cx="50.2984" cy="37.5714" rx="4.25531" ry="4.08163" transform="rotate(-180 50.2984 37.5714)" fill="url(#paint23_linear)"/>
<ellipse cx="38.7875" cy="37.5713" rx="4.25531" ry="4.08163" transform="rotate(-180 38.7875 37.5713)" fill="url(#paint24_linear)"/>
<ellipse cx="27.2768" cy="37.5714" rx="4.25531" ry="4.08163" transform="rotate(-180 27.2768 37.5714)" fill="url(#paint25_linear)"/>
<ellipse cx="15.766" cy="37.5714" rx="4.25531" ry="4.08163" transform="rotate(-180 15.766 37.5714)" fill="url(#paint26_linear)"/>
<ellipse cx="4.25543" cy="37.5714" rx="4.25531" ry="4.08163" transform="rotate(-180 4.25543 37.5714)" fill="url(#paint27_linear)"/>
<ellipse cx="73.32" cy="48.7346" rx="4.25531" ry="4.08163" transform="rotate(-180 73.32 48.7346)" fill="url(#paint28_linear)"/>
<ellipse cx="61.8091" cy="48.7345" rx="4.25531" ry="4.08163" transform="rotate(-180 61.8091 48.7345)" fill="url(#paint29_linear)"/>
<ellipse cx="50.2983" cy="48.7346" rx="4.25531" ry="4.08163" transform="rotate(-180 50.2983 48.7346)" fill="url(#paint30_linear)"/>
<ellipse cx="38.7875" cy="48.7345" rx="4.25531" ry="4.08163" transform="rotate(-180 38.7875 48.7345)" fill="url(#paint31_linear)"/>
<ellipse cx="27.2768" cy="48.7346" rx="4.25531" ry="4.08163" transform="rotate(-180 27.2768 48.7346)" fill="url(#paint32_linear)"/>
<ellipse cx="15.7662" cy="48.7346" rx="4.25531" ry="4.08163" transform="rotate(-180 15.7662 48.7346)" fill="url(#paint33_linear)"/>
<ellipse cx="4.25531" cy="48.7346" rx="4.25531" ry="4.08163" transform="rotate(-180 4.25531 48.7346)" fill="url(#paint34_linear)"/>
<ellipse cx="73.32" cy="59.8978" rx="4.25531" ry="4.08163" transform="rotate(-180 73.32 59.8978)" fill="url(#paint35_linear)"/>
<ellipse cx="61.8091" cy="59.8977" rx="4.25531" ry="4.08163" transform="rotate(-180 61.8091 59.8977)" fill="url(#paint36_linear)"/>
<ellipse cx="50.2984" cy="59.8978" rx="4.25531" ry="4.08163" transform="rotate(-180 50.2984 59.8978)" fill="url(#paint37_linear)"/>
<ellipse cx="38.7875" cy="59.8977" rx="4.25531" ry="4.08163" transform="rotate(-180 38.7875 59.8977)" fill="url(#paint38_linear)"/>
<ellipse cx="27.2769" cy="59.8978" rx="4.25531" ry="4.08163" transform="rotate(-180 27.2769 59.8978)" fill="url(#paint39_linear)"/>
<ellipse cx="15.766" cy="59.8978" rx="4.25531" ry="4.08163" transform="rotate(-180 15.766 59.8978)" fill="url(#paint40_linear)"/>
<ellipse cx="4.25543" cy="59.8978" rx="4.25531" ry="4.08163" transform="rotate(-180 4.25543 59.8978)" fill="url(#paint41_linear)"/>
<defs>
<linearGradient id="paint0_linear" x1="73.32" y1="0.000133514" x2="73.32" y2="8.16339" gradientUnits="userSpaceOnUse">
<stop offset="0.208333" stop-color="#A063F4"/>
<stop offset="1" stop-color="#E5B2CD"/>
</linearGradient>
<linearGradient id="paint1_linear" x1="61.8091" y1="1.14441e-05" x2="61.8091" y2="8.16327" gradientUnits="userSpaceOnUse">
<stop offset="0.208333" stop-color="#A063F4"/>
<stop offset="1" stop-color="#E5B2CD"/>
</linearGradient>
<linearGradient id="paint2_linear" x1="50.2984" y1="0.000133514" x2="50.2984" y2="8.16339" gradientUnits="userSpaceOnUse">
<stop offset="0.208333" stop-color="#A063F4"/>
<stop offset="1" stop-color="#E5B2CD"/>
</linearGradient>
<linearGradient id="paint3_linear" x1="38.7877" y1="1.14441e-05" x2="38.7877" y2="8.16327" gradientUnits="userSpaceOnUse">
<stop offset="0.208333" stop-color="#A063F4"/>
<stop offset="1" stop-color="#E5B2CD"/>
</linearGradient>
<linearGradient id="paint4_linear" x1="27.2768" y1="0.000133514" x2="27.2768" y2="8.16339" gradientUnits="userSpaceOnUse">
<stop offset="0.208333" stop-color="#A063F4"/>
<stop offset="1" stop-color="#E5B2CD"/>
</linearGradient>
<linearGradient id="paint5_linear" x1="15.766" y1="0.000133514" x2="15.766" y2="8.16339" gradientUnits="userSpaceOnUse">
<stop offset="0.208333" stop-color="#A063F4"/>
<stop offset="1" stop-color="#E5B2CD"/>
</linearGradient>
<linearGradient id="paint6_linear" x1="4.25531" y1="0.000133514" x2="4.25531" y2="8.16339" gradientUnits="userSpaceOnUse">
<stop offset="0.208333" stop-color="#A063F4"/>
<stop offset="1" stop-color="#E5B2CD"/>
</linearGradient>
<linearGradient id="paint7_linear" x1="73.32" y1="11.1633" x2="73.32" y2="19.3266" gradientUnits="userSpaceOnUse">
<stop offset="0.208333" stop-color="#A063F4"/>
<stop offset="1" stop-color="#E5B2CD"/>
</linearGradient>
<linearGradient id="paint8_linear" x1="61.809" y1="11.1632" x2="61.809" y2="19.3265" gradientUnits="userSpaceOnUse">
<stop offset="0.208333" stop-color="#A063F4"/>
<stop offset="1" stop-color="#E5B2CD"/>
</linearGradient>
<linearGradient id="paint9_linear" x1="50.2984" y1="11.1633" x2="50.2984" y2="19.3266" gradientUnits="userSpaceOnUse">
<stop offset="0.208333" stop-color="#A063F4"/>
<stop offset="1" stop-color="#E5B2CD"/>
</linearGradient>
<linearGradient id="paint10_linear" x1="38.7875" y1="11.1632" x2="38.7875" y2="19.3265" gradientUnits="userSpaceOnUse">
<stop offset="0.208333" stop-color="#A063F4"/>
<stop offset="1" stop-color="#E5B2CD"/>
</linearGradient>
<linearGradient id="paint11_linear" x1="27.2768" y1="11.1633" x2="27.2768" y2="19.3266" gradientUnits="userSpaceOnUse">
<stop offset="0.208333" stop-color="#A063F4"/>
<stop offset="1" stop-color="#E5B2CD"/>
</linearGradient>
<linearGradient id="paint12_linear" x1="15.766" y1="11.1633" x2="15.766" y2="19.3266" gradientUnits="userSpaceOnUse">
<stop offset="0.208333" stop-color="#A063F4"/>
<stop offset="1" stop-color="#E5B2CD"/>
</linearGradient>
<linearGradient id="paint13_linear" x1="4.25531" y1="11.1633" x2="4.25531" y2="19.3266" gradientUnits="userSpaceOnUse">
<stop offset="0.208333" stop-color="#A063F4"/>
<stop offset="1" stop-color="#E5B2CD"/>
</linearGradient>
<linearGradient id="paint14_linear" x1="73.3199" y1="22.3265" x2="73.3199" y2="30.4898" gradientUnits="userSpaceOnUse">
<stop offset="0.208333" stop-color="#A063F4"/>
<stop offset="1" stop-color="#E5B2CD"/>
</linearGradient>
<linearGradient id="paint15_linear" x1="61.8091" y1="22.3264" x2="61.8091" y2="30.4897" gradientUnits="userSpaceOnUse">
<stop offset="0.208333" stop-color="#A063F4"/>
<stop offset="1" stop-color="#E5B2CD"/>
</linearGradient>
<linearGradient id="paint16_linear" x1="50.2984" y1="22.3265" x2="50.2984" y2="30.4898" gradientUnits="userSpaceOnUse">
<stop offset="0.208333" stop-color="#A063F4"/>
<stop offset="1" stop-color="#E5B2CD"/>
</linearGradient>
<linearGradient id="paint17_linear" x1="38.7875" y1="22.3264" x2="38.7875" y2="30.4897" gradientUnits="userSpaceOnUse">
<stop offset="0.208333" stop-color="#A063F4"/>
<stop offset="1" stop-color="#E5B2CD"/>
</linearGradient>
<linearGradient id="paint18_linear" x1="27.2768" y1="22.3265" x2="27.2768" y2="30.4898" gradientUnits="userSpaceOnUse">
<stop offset="0.208333" stop-color="#A063F4"/>
<stop offset="1" stop-color="#E5B2CD"/>
</linearGradient>
<linearGradient id="paint19_linear" x1="15.766" y1="22.3265" x2="15.766" y2="30.4898" gradientUnits="userSpaceOnUse">
<stop offset="0.208333" stop-color="#A063F4"/>
<stop offset="1" stop-color="#E5B2CD"/>
</linearGradient>
<linearGradient id="paint20_linear" x1="4.25543" y1="22.3265" x2="4.25543" y2="30.4898" gradientUnits="userSpaceOnUse">
<stop offset="0.208333" stop-color="#A063F4"/>
<stop offset="1" stop-color="#E5B2CD"/>
</linearGradient>
<linearGradient id="paint21_linear" x1="73.32" y1="33.4898" x2="73.32" y2="41.653" gradientUnits="userSpaceOnUse">
<stop offset="0.208333" stop-color="#A063F4"/>
<stop offset="1" stop-color="#E5B2CD"/>
</linearGradient>
<linearGradient id="paint22_linear" x1="61.8093" y1="33.4896" x2="61.8093" y2="41.6529" gradientUnits="userSpaceOnUse">
<stop offset="0.208333" stop-color="#A063F4"/>
<stop offset="1" stop-color="#E5B2CD"/>
</linearGradient>
<linearGradient id="paint23_linear" x1="50.2984" y1="33.4898" x2="50.2984" y2="41.653" gradientUnits="userSpaceOnUse">
<stop offset="0.208333" stop-color="#A063F4"/>
<stop offset="1" stop-color="#E5B2CD"/>
</linearGradient>
<linearGradient id="paint24_linear" x1="38.7875" y1="33.4896" x2="38.7875" y2="41.6529" gradientUnits="userSpaceOnUse">
<stop offset="0.208333" stop-color="#A063F4"/>
<stop offset="1" stop-color="#E5B2CD"/>
</linearGradient>
<linearGradient id="paint25_linear" x1="27.2768" y1="33.4898" x2="27.2768" y2="41.653" gradientUnits="userSpaceOnUse">
<stop offset="0.208333" stop-color="#A063F4"/>
<stop offset="1" stop-color="#E5B2CD"/>
</linearGradient>
<linearGradient id="paint26_linear" x1="15.766" y1="33.4898" x2="15.766" y2="41.653" gradientUnits="userSpaceOnUse">
<stop offset="0.208333" stop-color="#A063F4"/>
<stop offset="1" stop-color="#E5B2CD"/>
</linearGradient>
<linearGradient id="paint27_linear" x1="4.25543" y1="33.4898" x2="4.25543" y2="41.653" gradientUnits="userSpaceOnUse">
<stop offset="0.208333" stop-color="#A063F4"/>
<stop offset="1" stop-color="#E5B2CD"/>
</linearGradient>
<linearGradient id="paint28_linear" x1="73.32" y1="44.653" x2="73.32" y2="52.8162" gradientUnits="userSpaceOnUse">
<stop offset="0.208333" stop-color="#A063F4"/>
<stop offset="1" stop-color="#E5B2CD"/>
</linearGradient>
<linearGradient id="paint29_linear" x1="61.8091" y1="44.6528" x2="61.8091" y2="52.8161" gradientUnits="userSpaceOnUse">
<stop offset="0.208333" stop-color="#A063F4"/>
<stop offset="1" stop-color="#E5B2CD"/>
</linearGradient>
<linearGradient id="paint30_linear" x1="50.2983" y1="44.653" x2="50.2983" y2="52.8162" gradientUnits="userSpaceOnUse">
<stop offset="0.208333" stop-color="#A063F4"/>
<stop offset="1" stop-color="#E5B2CD"/>
</linearGradient>
<linearGradient id="paint31_linear" x1="38.7875" y1="44.6528" x2="38.7875" y2="52.8161" gradientUnits="userSpaceOnUse">
<stop offset="0.208333" stop-color="#A063F4"/>
<stop offset="1" stop-color="#E5B2CD"/>
</linearGradient>
<linearGradient id="paint32_linear" x1="27.2768" y1="44.653" x2="27.2768" y2="52.8162" gradientUnits="userSpaceOnUse">
<stop offset="0.208333" stop-color="#A063F4"/>
<stop offset="1" stop-color="#E5B2CD"/>
</linearGradient>
<linearGradient id="paint33_linear" x1="15.7662" y1="44.653" x2="15.7662" y2="52.8162" gradientUnits="userSpaceOnUse">
<stop offset="0.208333" stop-color="#A063F4"/>
<stop offset="1" stop-color="#E5B2CD"/>
</linearGradient>
<linearGradient id="paint34_linear" x1="4.25531" y1="44.653" x2="4.25531" y2="52.8162" gradientUnits="userSpaceOnUse">
<stop offset="0.208333" stop-color="#A063F4"/>
<stop offset="1" stop-color="#E5B2CD"/>
</linearGradient>
<linearGradient id="paint35_linear" x1="73.32" y1="55.8162" x2="73.32" y2="63.9794" gradientUnits="userSpaceOnUse">
<stop offset="0.208333" stop-color="#A063F4"/>
<stop offset="1" stop-color="#E5B2CD"/>
</linearGradient>
<linearGradient id="paint36_linear" x1="61.8091" y1="55.816" x2="61.8091" y2="63.9793" gradientUnits="userSpaceOnUse">
<stop offset="0.208333" stop-color="#A063F4"/>
<stop offset="1" stop-color="#E5B2CD"/>
</linearGradient>
<linearGradient id="paint37_linear" x1="50.2984" y1="55.8162" x2="50.2984" y2="63.9794" gradientUnits="userSpaceOnUse">
<stop offset="0.208333" stop-color="#A063F4"/>
<stop offset="1" stop-color="#E5B2CD"/>
</linearGradient>
<linearGradient id="paint38_linear" x1="38.7875" y1="55.816" x2="38.7875" y2="63.9793" gradientUnits="userSpaceOnUse">
<stop offset="0.208333" stop-color="#A063F4"/>
<stop offset="1" stop-color="#E5B2CD"/>
</linearGradient>
<linearGradient id="paint39_linear" x1="27.2769" y1="55.8162" x2="27.2769" y2="63.9794" gradientUnits="userSpaceOnUse">
<stop offset="0.208333" stop-color="#A063F4"/>
<stop offset="1" stop-color="#E5B2CD"/>
</linearGradient>
<linearGradient id="paint40_linear" x1="15.766" y1="55.8162" x2="15.766" y2="63.9794" gradientUnits="userSpaceOnUse">
<stop offset="0.208333" stop-color="#A063F4"/>
<stop offset="1" stop-color="#E5B2CD"/>
</linearGradient>
<linearGradient id="paint41_linear" x1="4.25543" y1="55.8162" x2="4.25543" y2="63.9794" gradientUnits="userSpaceOnUse">
<stop offset="0.208333" stop-color="#A063F4"/>
<stop offset="1" stop-color="#E5B2CD"/>
</linearGradient>
</defs>
</svg>
