<svg height="423pt" viewBox="-14 0 423 423.3304" width="423pt" xmlns="http://www.w3.org/2000/svg" xmlns:xlink="http://www.w3.org/1999/xlink"><linearGradient id="lg1"><stop offset=".322" stop-color="#a163f5"/><stop offset=".466" stop-color="#b074ee"/><stop offset=".752" stop-color="#d8a1dd"/><stop offset=".898" stop-color="#efbad3"/></linearGradient><linearGradient id="linear0" gradientUnits="userSpaceOnUse" x1="186.1652" x2="186.1652" xlink:href="#lg1" y1="431.665" y2="-5.05"/><linearGradient id="linear1" gradientUnits="userSpaceOnUse" x1="197.6102" x2="197.6102" xlink:href="#lg1" y1="431.665" y2="-5.05"/><linearGradient id="linear2" gradientUnits="userSpaceOnUse" x1="309.0552" x2="309.0552" xlink:href="#lg1" y1="431.665" y2="-5.05"/><path d="m282.164062 214.191406v-132.558594c0-1.84375-.847656-3.585937-2.300781-4.722656-1.449219-1.136718-3.34375-1.542968-5.136719-1.101562l-121.984374 30.089844c-2.679688.660156-4.566407 3.0625-4.566407 5.824218v131.84375c-6.660156-4.90625-14.730469-7.519531-23.003906-7.449218-19.300781 0-35.007813 13.515624-35.007813 30.125 0 16.613281 15.699219 30.128906 35.007813 30.128906 19.304687 0 35.003906-13.515625 35.003906-30.128906v-102.109376l109.988281-27.128906v54.511719c-6.660156-4.90625-14.734374-7.519531-23.003906-7.449219-19.300781 0-35.007812 13.515625-35.007812 30.125 0 16.613282 15.699218 30.128906 35.007812 30.128906 19.304688 0 35.003906-13.515624 35.003906-30.128906zm-156.992187 70.171875c-12.6875 0-23.007813-8.128906-23.007813-18.125 0-9.996093 10.320313-18.128906 23.007813-18.128906 12.683594 0 23.003906 8.132813 23.003906 18.128906 0 9.996094-10.320312 18.125-23.003906 18.125zm35.003906-132.59375v-35.347656l109.988281-27.128906v35.351562zm63.976563 62.421875c0-10 10.320312-18.128906 23.007812-18.128906 12.683594 0 23.003906 8.132812 23.003906 18.128906 0 9.992188-10.320312 18.125-23.003906 18.125-12.6875 0-23.007812-8.128906-23.007812-18.125zm0 0" fill="url(#linear0)"/><path d="m354.828125 264.511719c11.496094-24.570313 17.417969-51.382813 17.335937-78.511719 0-102.5625-83.4375-186-186-186-102.558593 0-186 83.4375-186 186s83.441407 186 186 186c14.21875.003906 28.386719-1.617188 42.238282-4.828125 5.726562 15.355469 15.679687 28.773437 28.714844 38.707031 14.921874 11.375 33.175781 17.507813 51.9375 17.449219 38.324218 0 72.023437-25.359375 82.636718-62.1875 10.613282-36.824219-4.417968-76.230469-36.863281-96.628906zm-342.664063-78.511719c0-95.945312 78.054688-174 174-174 95.945313 0 174 78.054688 174 174 .074219 25.15625-5.367187 50.019531-15.945312 72.84375-29.621094-13.25-64.171875-8.707031-89.363281 11.746094-25.1875 20.453125-36.730469 53.339844-29.84375 85.046875-12.746094 2.902343-25.777344 4.367187-38.847657 4.363281-95.945312 0-174-78.054688-174-174zm296.890626 225.328125c-40.875.007813-74.015626-33.128906-74.015626-74.003906-.003906-40.875 33.132813-74.015625 74.011719-74.011719 40.875 0 74.007813 33.140625 74.003907 74.015625-.222657 40.777344-33.222657 73.777344-74 74zm0 0" fill="url(#linear1)"/><path d="m344.054688 331.328125h-29v-29c0-3.3125-2.6875-6-6-6s-6 2.6875-6 6v29h-29c-3.3125 0-6 2.6875-6 6 0 3.316406 2.6875 6 6 6h29v29c0 3.316406 2.6875 6 6 6s6-2.683594 6-6v-29h29c3.3125 0 6-2.683594 6-6 0-3.3125-2.6875-6-6-6zm0 0" fill="url(#linear2)"/></svg>