<svg height="471pt" viewBox="-32 0 471 471.53632" width="471pt" xmlns="http://www.w3.org/2000/svg" xmlns:xlink="http://www.w3.org/1999/xlink"><linearGradient id="lg1"><stop offset=".322" stop-color="#a163f5"/><stop offset=".466" stop-color="#b074ee"/><stop offset=".752" stop-color="#d8a1dd"/><stop offset=".898" stop-color="#efbad3"/></linearGradient><linearGradient id="linear0" gradientUnits="userSpaceOnUse" x1="155.413671" x2="155.413671" xlink:href="#lg1" y1="455.753" y2="19.038"/><linearGradient id="linear1" gradientUnits="userSpaceOnUse" x1="151.268671" x2="151.268671" xlink:href="#lg1" y1="455.753" y2="19.038"/><linearGradient id="linear2" gradientUnits="userSpaceOnUse" x1="93.129671" x2="93.129671" xlink:href="#lg1" y1="455.753" y2="19.038"/><linearGradient id="linear3" gradientUnits="userSpaceOnUse" x1="203.495671" x2="203.495671" xlink:href="#lg1" y1="455.753" y2="19.038"/><linearGradient id="linear4" gradientUnits="userSpaceOnUse" x1="295.722671" x2="295.722671" xlink:href="#lg1" y1="455.753" y2="19.038"/><path d="m165.589844 221.519531h-20.351563c-3.3125 0-6 2.6875-6 6s2.6875 6 6 6h20.351563c3.3125 0 6-2.6875 6-6s-2.6875-6-6-6zm0 0" fill="url(#linear0)"/><path d="m66.800781 182.636719h168.9375c3.3125 0 6-2.6875 6-6 0-3.316407-2.6875-6-6-6h-168.9375c-3.3125 0-6 2.683593-6 6 0 3.3125 2.6875 6 6 6zm0 0" fill="url(#linear1)"/><path d="m119.457031 221.519531h-52.65625c-3.3125 0-6 2.6875-6 6s2.6875 6 6 6h52.65625c3.316407 0 6-2.6875 6-6s-2.683593-6-6-6zm0 0" fill="url(#linear2)"/><path d="m301.902344 249.683594-.769532-139.65625-.007812-1.722656c-.007812-1.59375-.648438-3.117188-1.78125-4.238282l-103.335938-102.132812c-.984374-.972656-2.273437-1.574219-3.648437-1.707032l-2.148437-.1992182c-.203126-.0195313-.386719-.02343755-.601563-.0273438l-142.859375.6875c-25.792969.125-46.601562 21.132812-46.480469 46.925781l1.441407 299.894531c.121093 25.707032 20.996093 46.484376 46.703124 46.484376h.234376l140.96875-.800782c16.550781 53.757813 70.695312 86.640625 126.027343 76.539063 55.335938-10.097657 94.371094-59.988281 90.863281-116.125-3.503906-56.140625-48.445312-100.785157-104.605468-103.921875zm-21.101563-147.066406-48.058593.230468h-.167969c-19.09375-.027344-34.585938-15.449218-34.699219-34.539062l-.230469-47.886719zm-232.21875 279.375h-.167969c-19.101562-.007813-34.609374-15.441407-34.703124-34.542969l-1.441407-299.894531c-.089843-19.167969 15.371094-34.78125 34.539063-34.871094l138.796875-.667969.269531 56.347656c.152344 25.695313 21.007812 46.453125 46.699219 46.484375h.230469l56.351562-.269531.742188 135.082031c-31.996094 1.699219-61.699219 17.132813-81.480469 42.339844-19.785157 25.203125-27.714844 57.726562-21.757813 89.207031zm247.140625 77.519531c-54.675781 0-99-44.324219-99-99 0-54.679688 44.324219-99 99-99 54.675782 0 99 44.320312 99 99-.015625 54.667969-44.328125 98.980469-99 99zm0 0" fill="url(#linear3)"/><path d="m358.917969 292.160156c-1.640625-1.117187-3.726563-1.347656-5.574219-.621094l-81.082031 31.964844c-2.292969.902344-3.800781 3.117188-3.800781 5.582032v60.035156c-4.082032-2.183594-8.648438-3.320313-13.277344-3.300782-13.941406 0-25.28125 9.886719-25.28125 22.035157 0 12.152343 11.339844 22.039062 25.28125 22.039062 13.9375 0 25.277344-9.886719 25.277344-22.039062v-42.972657l69.082031-27.230468v28.84375c-4.085938-2.183594-8.648438-3.320313-13.28125-3.300782-13.9375 0-25.277344 9.882813-25.277344 22.035157 0 12.152343 11.339844 22.035156 25.277344 22.035156 13.941406 0 25.28125-9.882813 25.28125-22.035156v-88.109375c0-1.984375-.984375-3.84375-2.625-4.960938zm-103.734375 125.738282c-7.199219 0-13.28125-4.601563-13.28125-10.039063 0-5.433594 6.082031-10.035156 13.28125-10.035156 7.199218 0 13.277344 4.601562 13.277344 10.035156 0 5.4375-6.082032 10.039063-13.277344 10.039063zm25.277344-65.914063v-18.8125l69.082031-27.234375v18.816406zm55.800781 43.28125c-7.199219 0-13.28125-4.597656-13.28125-10.035156 0-5.433594 6.082031-10.035157 13.28125-10.035157s13.277343 4.601563 13.277343 10.035157c0 5.4375-6.078124 10.035156-13.277343 10.035156zm0 0" fill="url(#linear4)"/></svg>